<svg width="19" height="18" viewBox="0 0 19 18" fill="none" xmlns="http://www.w3.org/2000/svg">
<path fill-rule="evenodd" clip-rule="evenodd" d="M17.8245 2.0638C17.9314 1.95704 18.0163 1.83026 18.0742 1.69072C18.1321 1.55117 18.1619 1.40159 18.162 1.25051C18.1621 1.09943 18.1324 0.949809 18.0747 0.810193C18.017 0.670577 17.9323 0.543698 17.8255 0.436802C17.7188 0.329906 17.592 0.245086 17.4525 0.187184C17.3129 0.129282 17.1633 0.0994328 17.0123 0.09934C16.8612 0.0992471 16.7115 0.128913 16.5719 0.186643C16.4323 0.244374 16.3054 0.329038 16.1985 0.435802L9.26054 7.3738L2.32454 0.435802C2.10866 0.219916 1.81585 0.0986328 1.51054 0.0986328C1.20524 0.0986328 0.912431 0.219916 0.696545 0.435802C0.480658 0.651689 0.359375 0.944493 0.359375 1.2498C0.359375 1.55511 0.480658 1.84792 0.696545 2.0638L7.63454 8.9998L0.696545 15.9358C0.589649 16.0427 0.504854 16.1696 0.447002 16.3093C0.389151 16.4489 0.359375 16.5986 0.359375 16.7498C0.359375 16.901 0.389151 17.0507 0.447002 17.1903C0.504854 17.33 0.589649 17.4569 0.696545 17.5638C0.912431 17.7797 1.20524 17.901 1.51054 17.901C1.66172 17.901 1.81141 17.8712 1.95108 17.8133C2.09074 17.7555 2.21765 17.6707 2.32454 17.5638L9.26054 10.6258L16.1985 17.5638C16.4144 17.7794 16.7071 17.9005 17.0123 17.9003C17.3174 17.9001 17.6099 17.7787 17.8255 17.5628C18.0412 17.3469 18.1622 17.0542 18.162 16.7491C18.1618 16.444 18.0404 16.1514 17.8245 15.9358L10.8865 8.9998L17.8245 2.0638Z" fill="white" fill-opacity="0.3"/>
</svg>
