<svg width="31" height="31" viewBox="0 0 31 31" fill="none" xmlns="http://www.w3.org/2000/svg">
<path d="M15.598 11.1889C14.4328 11.1889 13.3153 11.6518 12.4914 12.4758C11.6674 13.2997 11.2046 14.4172 11.2046 15.5824C11.2046 16.7476 11.6674 17.8651 12.4914 18.6891C13.3153 19.513 14.4328 19.9759 15.598 19.9759C16.7633 19.9759 17.8808 19.513 18.7047 18.6891C19.5286 17.8651 19.9915 16.7476 19.9915 15.5824C19.9915 14.4172 19.5286 13.2997 18.7047 12.4758C17.8808 11.6518 16.7633 11.1889 15.598 11.1889ZM15.598 8.25996C17.5401 8.25996 19.4026 9.03143 20.7758 10.4047C22.149 11.7779 22.9205 13.6404 22.9205 15.5824C22.9205 17.5245 22.149 19.3869 20.7758 20.7602C19.4026 22.1334 17.5401 22.9049 15.598 22.9049C13.656 22.9049 11.7935 22.1334 10.4203 20.7602C9.04705 19.3869 8.27558 17.5245 8.27558 15.5824C8.27558 13.6404 9.04705 11.7779 10.4203 10.4047C11.7935 9.03143 13.656 8.25996 15.598 8.25996ZM25.1172 7.89383C25.1172 8.37934 24.9244 8.84497 24.5811 9.18827C24.2378 9.53158 23.7721 9.72445 23.2866 9.72445C22.8011 9.72445 22.3355 9.53158 21.9922 9.18827C21.6489 8.84497 21.456 8.37934 21.456 7.89383C21.456 7.40833 21.6489 6.9427 21.9922 6.59939C22.3355 6.25609 22.8011 6.06322 23.2866 6.06322C23.7721 6.06322 24.2378 6.25609 24.5811 6.59939C24.9244 6.9427 25.1172 7.40833 25.1172 7.89383ZM15.598 3.86648C11.9749 3.86648 11.3832 3.87673 9.6976 3.95142C8.54944 4.00561 7.77912 4.15938 7.06445 4.43763C6.46637 4.65722 5.92568 5.00917 5.4828 5.46717C5.02442 5.91003 4.67199 6.4507 4.4518 7.04882C4.17354 7.76642 4.01977 8.53528 3.96705 9.68198C3.8909 11.2988 3.88064 11.8641 3.88064 15.5824C3.88064 19.207 3.8909 19.7972 3.96558 21.4829C4.01977 22.6295 4.17354 23.4013 4.45033 24.1145C4.69929 24.7516 4.99219 25.21 5.4784 25.6962C5.97194 26.1883 6.43032 26.4826 7.06005 26.7257C7.78351 27.0054 8.55384 27.1607 9.69614 27.2134C11.3129 27.2896 11.8782 27.2983 15.5966 27.2983C19.2212 27.2983 19.8114 27.2881 21.497 27.2134C22.6422 27.1592 23.4126 27.0054 24.1287 26.7287C24.7262 26.508 25.2667 26.1562 25.7104 25.6991C26.2039 25.2071 26.4983 24.7487 26.7414 24.1175C27.0196 23.3969 27.1748 22.6266 27.2276 21.4814C27.3037 19.8661 27.3125 19.2993 27.3125 15.5824C27.3125 11.9593 27.3023 11.3676 27.2276 9.68198C27.1734 8.53675 27.0181 7.76349 26.7414 7.04882C26.5206 6.45134 26.1688 5.91089 25.7118 5.46717C25.2692 5.00856 24.7284 4.65609 24.1302 4.43617C23.4126 4.15792 22.6422 4.00415 21.497 3.95142C19.8817 3.87527 19.3178 3.86648 15.598 3.86648ZM15.598 0.9375C19.5771 0.9375 20.0735 0.952145 21.6361 1.02537C23.1944 1.09859 24.2576 1.34316 25.1905 1.70636C26.157 2.07834 26.9713 2.58212 27.7855 3.39492C28.5302 4.12701 29.1064 5.01258 29.4741 5.99C29.8358 6.92288 30.0819 7.9861 30.1551 9.54578C30.2239 11.1069 30.243 11.6034 30.243 15.5824C30.243 19.5614 30.2283 20.0579 30.1551 21.619C30.0819 23.1787 29.8358 24.2405 29.4741 25.1748C29.1075 26.1528 28.5311 27.0385 27.7855 27.7699C27.0532 28.5143 26.1677 29.0905 25.1905 29.4585C24.2576 29.8202 23.1944 30.0662 21.6361 30.1395C20.0735 30.2083 19.5771 30.2273 15.598 30.2273C11.619 30.2273 11.1226 30.2127 9.55994 30.1395C8.00172 30.0662 6.93997 29.8202 6.00562 29.4585C5.02782 29.0916 4.1421 28.5153 3.41054 27.7699C2.66575 27.0379 2.08951 26.1523 1.72198 25.1748C1.35879 24.242 1.11422 23.1787 1.04099 21.619C0.970699 20.0579 0.953125 19.5614 0.953125 15.5824C0.953125 11.6034 0.96777 11.1069 1.04099 9.54578C1.11422 7.98463 1.35879 6.92434 1.72198 5.99C2.08845 5.01198 2.66483 4.12617 3.41054 3.39492C4.14231 2.64983 5.02797 2.07355 6.00562 1.70636C6.9385 1.34316 8.00026 1.09859 9.55994 1.02537C11.1226 0.956538 11.619 0.9375 15.598 0.9375Z" fill="#0F1013"/>
</svg>
