<svg width="30" height="29" viewBox="0 0 30 29" fill="none" xmlns="http://www.w3.org/2000/svg">
<path d="M29.5403 18.1018V28.9083H23.2752V18.8253C23.2752 16.2917 22.3687 14.5636 20.1017 14.5636C18.3707 14.5636 17.3397 15.7294 16.8871 16.8556C16.7216 17.2583 16.6792 17.8192 16.6792 18.383V28.9083H10.4111C10.4111 28.9083 10.4961 11.8324 10.4111 10.0618H16.6792V12.733L16.6382 12.7945H16.6792V12.733C17.511 11.4516 18.9975 9.6195 22.3262 9.6195C26.4488 9.6195 29.5403 12.3142 29.5403 18.1018ZM3.85608 0.977539C1.71353 0.977539 0.310547 2.38345 0.310547 4.2331C0.310547 6.04175 1.67252 7.49013 3.77407 7.49013H3.81507C6.00156 7.49013 7.35914 6.04175 7.35914 4.2331C7.32107 2.38345 6.00156 0.977539 3.85608 0.977539ZM0.682528 28.9083H6.94762V10.0618H0.682528V28.9083Z" fill="#0F1013"/>
</svg>
