<svg width="31" height="25" viewBox="0 0 31 25" fill="none" xmlns="http://www.w3.org/2000/svg">
<path d="M30.109 3.29342C28.9914 3.78783 27.8063 4.11262 26.5928 4.25706C27.8714 3.49133 28.828 2.28693 29.2845 0.868225C28.0836 1.5829 26.7671 2.08375 25.3963 2.35468C24.4746 1.36846 23.2528 0.7144 21.921 0.494172C20.5892 0.273944 19.2219 0.499893 18.0318 1.13689C16.8416 1.77389 15.8952 2.78625 15.3398 4.01658C14.7844 5.24691 14.651 6.62628 14.9603 7.94026C12.5248 7.8184 10.1421 7.18564 7.967 6.08308C5.7919 4.98052 3.87302 3.4328 2.33495 1.54043C1.79058 2.47543 1.50452 3.53833 1.50605 4.62025C1.50605 6.74376 2.58831 8.61978 4.23 9.71815C3.2576 9.68748 2.30661 9.42488 1.45625 8.95222V9.02691C1.45621 10.4414 1.94544 11.8124 2.84098 12.9073C3.73651 14.0023 4.98321 14.7537 6.36962 15.0343C5.46697 15.2791 4.5204 15.3152 3.60173 15.1397C3.99264 16.3573 4.7546 17.4221 5.78089 18.185C6.80719 18.9478 8.0464 19.3706 9.32497 19.394C8.05431 20.392 6.59938 21.1297 5.04339 21.565C3.4874 22.0002 1.86088 22.1244 0.256836 21.9305C3.05654 23.731 6.31559 24.6868 9.64423 24.6838C20.912 24.6838 27.0717 15.3506 27.0717 7.25634C27.0717 6.99273 27.0658 6.72619 27.0541 6.46405C28.2526 5.59759 29.2871 4.52295 30.109 3.29342Z" fill="#0F1013"/>
</svg>
