<svg width="30" height="31" viewBox="0 0 30 31" fill="none" xmlns="http://www.w3.org/2000/svg">
<path d="M10.478 29.5556C11.8839 29.9803 13.3045 30.2293 14.8129 30.2293C18.697 30.2293 22.4219 28.6863 25.1684 25.9399C27.9149 23.1934 29.4578 19.4684 29.4578 15.5844C29.4578 13.6612 29.079 11.7568 28.343 9.98C27.607 8.2032 26.5283 6.58876 25.1684 5.22885C23.8085 3.86894 22.1941 2.79021 20.4172 2.05423C18.6404 1.31826 16.7361 0.939453 14.8129 0.939453C12.8897 0.939453 10.9853 1.31826 9.20852 2.05423C7.43171 2.79021 5.81727 3.86894 4.45737 5.22885C1.71091 7.9753 0.167969 11.7003 0.167969 15.5844C0.167969 21.8085 4.07816 27.1539 9.59929 29.2627C9.46749 28.1204 9.33568 26.2312 9.59929 24.9278L11.2835 17.6932C11.2835 17.6932 10.8588 16.8438 10.8588 15.4965C10.8588 13.4755 12.1182 11.9671 13.5534 11.9671C14.8129 11.9671 15.3987 12.8897 15.3987 14.0759C15.3987 15.3354 14.5639 17.1367 14.1392 18.8648C13.8903 20.3 14.9008 21.5595 16.3652 21.5595C18.972 21.5595 20.993 18.777 20.993 14.8521C20.993 11.3373 18.4741 8.93558 14.8568 8.93558C10.727 8.93558 8.2959 12.011 8.2959 15.2475C8.2959 16.507 8.70595 17.7811 9.37962 18.6159C9.51142 18.7037 9.51143 18.8209 9.46749 19.0406L9.04279 20.6369C9.04279 20.8858 8.88169 20.9737 8.63273 20.798C6.75818 19.9778 5.67446 17.3125 5.67446 15.1597C5.67446 10.5319 8.95492 6.32878 15.2815 6.32878C20.3194 6.32878 24.2442 9.94608 24.2442 14.7496C24.2442 19.7875 21.1248 23.8295 16.6581 23.8295C15.2376 23.8295 13.8463 23.0679 13.3484 22.1746L12.3672 25.6454C12.0303 26.9049 11.1077 28.5891 10.478 29.5996V29.5556Z" fill="#0F1013"/>
</svg>
